<svg width="125" height="69" viewBox="0 0 125 69" fill="none" xmlns="http://www.w3.org/2000/svg">
<g clip-path="url(#clip0_605_23)">
<path d="M60.2993 7.29925C60.2993 7.29925 59.4956 7.43538 59.028 7.27591C59.028 7.27591 58.6995 7.49373 58.116 7.63376C57.7011 7.74906 57.2746 7.81691 56.8446 7.83603C56.8446 7.83603 56.9992 7.41205 57.1344 7.20978C57.2658 7.00752 57.4668 6.89472 57.7566 6.80525C58.0464 6.71579 58.8734 6.4474 59.2521 6.64966C59.2521 6.64966 59.7854 6.28792 60.4771 6.15567C60.4771 6.15567 60.253 5.70446 60.365 5.41273C60.4771 5.12101 60.7437 4.98487 61.0104 5.07822C61.0104 5.07822 61.0104 4.80983 61.1881 4.73981C61.3659 4.67369 61.7678 4.72037 61.7678 4.72037C61.7678 4.72037 61.7021 4.47142 61.9919 4.42864C62.2818 4.38585 62.4827 4.47531 62.5716 4.60756C62.5716 4.60756 62.5909 4.36251 62.8846 4.36251C63.1783 4.36251 63.3329 4.65424 63.3329 4.65424C63.3329 4.65424 63.5338 4.24971 63.8236 4.38585C63.8236 4.38585 63.8043 4.67758 63.9357 4.79038C64.0709 4.90318 64.0941 5.24159 64.0941 5.24159C64.0941 5.24159 64.4728 5.21825 64.7395 5.12879C65.0061 5.03932 65.1414 5.05877 64.9829 5.44385C64.8245 5.82893 64.8052 5.9184 64.6467 5.98452C64.4922 6.05065 64.3801 6.07399 64.3801 6.07399C64.3801 6.07399 64.4226 6.50185 64.4458 6.63799C64.469 6.77413 64.4922 7.10865 64.156 7.37704C63.8236 7.64543 63.843 8.43115 61.7021 8.99516C61.7021 8.99516 61.9919 9.75754 61.3891 9.64474C61.3891 9.64474 59.8936 11.5546 58.0194 12.8343C58.0194 12.8343 57.7296 13.1494 57.8184 13.2816C57.9073 13.4139 58.0851 13.4411 58.0851 13.4411C58.0851 13.4411 57.9073 13.6862 58.174 13.8456C58.4406 14.0051 64.1521 16.8096 65.8485 18.2021C65.8485 18.2021 65.2921 18.1321 64.9095 18.4472C64.9095 18.4472 62.6798 17.4825 60.8945 18.311C60.8945 18.311 59.198 17.6809 57.7489 18.2682C57.7489 18.2682 55.9442 16.6968 55.2061 15.9539C55.2061 15.9539 56.0795 15.2109 56.4118 14.9192C56.7441 14.6275 56.5896 14.5341 56.2109 14.8297C55.8399 15.1176 55.2602 15.4988 55.1018 15.6543C54.9434 15.8099 54.7231 15.8099 54.5221 15.631C54.3212 15.4521 54.3212 15.3159 54.4333 14.9814C54.4333 14.9814 54.0777 14.9581 53.7415 14.6469C53.4116 14.3417 53.1054 14.0114 52.8257 13.6589C52.6479 13.4139 52.6248 13.2311 52.8257 13.0288C53.0266 12.8265 53.985 11.9747 54.186 11.8152C54.186 11.8152 54.2323 11.0295 54.9434 11.2317C55.6583 11.434 55.523 11.1851 55.3027 11.0061C55.3027 11.0061 58.0232 8.98349 59.8549 8.01884C59.8549 8.01884 59.8318 7.72711 60.2993 7.29925ZM56.9992 7.07364C56.9992 7.07364 56.7982 7.29925 56.5973 7.8827C56.5973 7.8827 56.1065 8.12775 55.5926 8.12775C55.5926 8.12775 55.7008 8.44282 55.3259 8.55562C54.9434 8.66842 54.7888 8.53228 54.7231 8.33002C54.7231 8.33002 53.6527 8.80456 52.0915 8.93681C52.0915 8.93681 52.1572 9.31801 51.7785 9.38413C51.3998 9.45415 51.222 9.27522 51.1331 8.89014C51.0442 8.50895 50.9554 8.19388 51.3998 8.06163C51.848 7.92549 51.8905 8.22111 51.8905 8.22111C51.8905 8.22111 53.073 7.79324 54.5685 7.72711C54.5685 7.72711 54.499 7.36537 54.8815 7.23312C55.2641 7.10087 55.4844 7.3926 55.4844 7.3926C55.4844 7.3926 56.4195 7.12032 56.9992 7.07364Z" fill="black"/>
<path d="M67.5141 5.3349C67.5141 5.3349 67.0465 5.63052 66.5635 5.44381C66.5635 5.44381 66.4244 5.63052 65.9722 5.72387C65.5201 5.81723 64.8516 6.16341 65.211 5.4866C65.5703 4.80979 65.7095 4.90703 66.0534 4.81368C66.3934 4.72033 66.691 4.65809 66.8765 4.78256C66.8765 4.78256 67.1431 4.54529 67.5953 4.35858C67.5953 4.35858 66.8765 2.21146 64.0439 2.72879C63.8275 2.76769 63.9009 2.5382 64.013 2.36705C64.1212 2.1959 66.4437 -1.30095 71.2857 0.531105C71.4673 0.60112 71.4557 0.752819 71.2084 0.826724C70.9611 0.908408 68.998 1.47242 68.9516 3.88404C68.9516 3.88404 69.168 3.95016 69.2917 4.07463C69.2917 4.07463 69.8829 3.94627 70.5708 3.16444C70.5708 3.16444 71.2548 3.44839 73.2333 3.58842C73.2333 3.58842 71.846 4.12131 71.0693 5.07818C71.0693 5.07818 70.3815 4.76311 69.4347 4.84091C69.4347 4.84091 69.3574 5.23377 69.0289 5.34268C69.0289 5.34268 69.1217 6.14396 69.7941 6.80132C69.7941 6.80132 69.3574 7.31866 69.2647 8.03825C69.2647 8.03825 68.7971 7.47035 68.0976 7.15918C68.0976 7.15918 68.3643 6.7352 68.2406 5.6383C68.229 5.64997 67.6223 5.66553 67.5141 5.3349Z" fill="black"/>
<path d="M67.3865 1.82253C67.3865 1.82253 67.1238 1.28963 67.402 1.16516C67.6802 1.04069 67.9005 1.38688 67.9778 1.69805C67.9778 1.69805 68.4454 1.57358 68.5226 1.80697C68.6038 2.04424 68.0551 2.15315 68.0551 2.15315C68.0551 2.15315 68.2753 2.77939 67.9623 2.87664C67.6493 2.96999 67.5566 2.29707 67.5566 2.29707C67.5566 2.29707 67.0735 2.46822 67.0117 2.25039C66.9189 1.91588 67.3865 1.82253 67.3865 1.82253Z" fill="white"/>
<path d="M53.1346 19.8008C53.1346 19.8008 54.5258 20.9794 55.8281 21.5084C55.8281 21.5084 54.6804 22.2863 53.2892 22.508C51.898 22.7297 51.2063 22.1424 51.0827 21.3995C50.9474 20.6215 51.6314 19.7113 53.1346 19.8008ZM53.3549 19.7113C53.3549 19.7113 54.7461 18.49 57.1497 18.9334C57.1497 18.9334 57.9883 19.7541 58.4327 20.2209C58.7576 20.5785 59.1576 20.8588 59.6035 21.0416C59.6035 21.0416 58.4558 21.6173 57.3738 21.6173C56.2918 21.6173 54.7886 20.9094 53.3549 19.7113Z" fill="black"/>
<path d="M57.3932 18.8439C57.3932 18.8439 58.6066 17.8442 60.7242 18.5327C60.7242 18.5327 62.4245 20.532 63.3288 20.9988C63.3288 20.9988 62.9308 21.24 61.8024 21.2633C60.6778 21.2866 59.2867 20.8627 58.6259 20.1275C58.0424 19.4818 57.3932 18.8439 57.3932 18.8439ZM61.0334 18.5327C61.0334 18.5327 62.8419 17.7314 64.7393 18.665C64.7393 18.665 66.0222 20.532 67.0772 21.3333C67.0772 21.3333 66.1729 21.555 65.1141 21.4889C64.0553 21.4228 62.4477 20.3103 61.0334 18.5327ZM65.0523 18.6222C65.0523 18.6222 66.4434 17.8676 68.7814 19.1979C68.7814 19.1979 69.8866 21.5084 70.6788 22.1307C70.6788 22.1307 68.252 22.1074 67.0811 21.0182C65.9102 19.9291 65.0523 18.6222 65.0523 18.6222ZM69.0248 19.1551C69.0248 19.1551 71.1 19.0695 72.8003 20.0458C74.4967 21.0221 73.5964 22.8892 72.3366 22.6441C71.0807 22.3991 70.2382 21.6639 69.0248 19.1551ZM53.2622 25.437C53.3974 25.437 53.4747 25.3086 53.4747 25.2036C53.4747 25.1063 53.4206 25.0402 53.3356 25.0402C53.2003 25.0402 53.123 25.1686 53.123 25.2775C53.123 25.3708 53.181 25.437 53.2622 25.437Z" fill="black"/>
<path d="M58.5914 26.3199C58.6455 26.3199 58.6725 26.351 58.6725 26.3938C58.6725 26.565 58.0194 27.0745 58.0194 27.5608C58.0194 27.7864 58.1044 27.9575 58.2861 27.9575C58.4252 27.9575 58.6377 27.7941 58.9044 27.518C58.9855 27.4363 59.2869 27.1057 59.2869 27.0745C59.2869 27.0629 59.2831 27.0434 59.2638 27.0434C59.229 27.0434 59.2522 27.0629 58.943 27.3896C58.6957 27.6619 58.4406 27.8797 58.3015 27.8797C58.2397 27.8797 58.2049 27.8175 58.2049 27.7591C58.2049 27.6619 58.3402 27.4363 58.6107 27.0668C58.715 26.9189 58.8348 26.7439 58.8348 26.5378C58.8348 26.4055 58.7653 26.246 58.6145 26.246C58.3054 26.246 57.6098 27.1095 57.3741 27.3351L57.3625 27.3235C57.4939 27.1446 57.7451 26.7906 57.7451 26.5494C57.7451 26.3627 57.6794 26.246 57.5209 26.246C57.2852 26.246 57.0418 26.4716 56.7519 26.8139C56.6901 26.8878 56.578 27.0162 56.5394 27.0706L56.466 27.1523C56.398 27.2392 56.3127 27.3108 56.2155 27.3624C56.1183 27.414 56.0114 27.4445 55.9018 27.4518C55.867 27.4518 55.8477 27.4479 55.8361 27.4402C56.0382 27.2332 56.1637 26.9627 56.1916 26.6739C56.1916 26.4327 56.0602 26.2499 55.8283 26.2499C55.449 26.283 55.0953 26.4562 54.8352 26.7361C54.6767 26.8834 54.5318 27.0448 54.4024 27.2185C54.3019 27.339 54.1667 27.5024 53.9657 27.6424L53.9619 27.6347C54.0605 27.5382 54.1186 27.4073 54.1242 27.269C54.1242 27.0162 53.9966 26.8801 53.9966 26.4288C53.9966 26.3627 54.0082 26.3472 54.0198 26.2849C54.128 26.246 54.2594 26.211 54.2594 26.0943C54.2594 26.0399 54.2285 26.0049 54.159 26.0049C54.0237 26.0049 53.9696 26.1799 53.958 26.1877C53.9232 26.2071 53.5716 26.5922 53.4325 26.7634C53.332 26.8917 53.2624 26.9695 53.216 27.024C53.1851 27.0473 52.9996 27.2768 52.8528 27.4285C52.6519 27.6347 52.3736 27.8836 52.1804 27.8836C52.1263 27.8836 52.0645 27.8603 52.0645 27.7552C52.0645 27.6191 52.1804 27.4635 52.903 26.246L52.5205 26.2694C52.4393 26.3977 52.1688 26.6856 52.0104 26.8684L51.8481 27.059L51.7708 27.1446C51.4191 27.5569 51.0945 27.8797 50.9129 27.8797C50.8317 27.8797 50.8086 27.8447 50.8086 27.798C50.8086 27.5763 51.5119 26.4872 51.6819 26.2733L51.3959 26.2888C51.2684 26.2966 51.28 26.3744 51.0636 26.7284L51.052 26.7167C51.0645 26.6632 51.0697 26.6082 51.0675 26.5533C51.0675 26.3861 50.9902 26.2499 50.8086 26.2499C50.3912 26.2499 49.9004 26.5689 49.5758 26.9695C49.4986 27.0668 49.4831 27.0784 49.4792 27.1018C49.4483 27.1407 49.3749 27.2301 49.1662 27.4441C48.9885 27.6269 48.6561 27.9264 48.4436 27.9264C48.3547 27.9264 48.2929 27.8408 48.2929 27.7747C48.2929 27.1057 49.1585 25.612 50.0705 24.1884C50.3178 23.7994 50.4144 23.7177 50.4144 23.6905C50.4144 23.6788 50.4105 23.6749 50.3951 23.6749C50.3642 23.6749 50.2019 23.7955 49.6531 24.3206C48.3586 25.542 46.8669 27.7008 46.6621 27.7008C46.6457 27.7008 46.63 27.6942 46.6184 27.6826C46.6068 27.6709 46.6003 27.6551 46.6003 27.6385C46.6003 27.304 47.6205 25.4175 48.5054 24.2895C48.9575 23.7138 48.9846 23.7411 48.9846 23.6983C48.9846 23.6827 48.973 23.6749 48.9575 23.6749C48.9421 23.6749 47.9953 24.3206 46.9945 25.3553C45.6458 26.7361 44.8845 27.9303 43.9532 27.9303C43.559 27.9303 43.3852 27.7825 43.3852 27.6074C43.3852 27.4791 43.5668 27.4596 43.5668 27.2846C43.5668 27.1562 43.4779 27.0434 43.3504 27.0434C43.1765 27.0434 43.0605 27.1757 43.0605 27.3818C43.0605 27.7358 43.3929 28.0042 43.9262 28.0042C45.2748 28.0042 46.0361 25.9776 48.7102 23.9278L48.7141 23.9316C47.748 24.9235 46.2177 26.7867 46.2177 27.7241C46.2177 27.8408 46.268 27.9692 46.4109 27.9692C46.921 27.9692 48.4552 25.3864 50.1284 23.99L50.14 24.0017C49.5604 24.6512 47.9915 26.5339 47.9915 27.5024C47.9915 27.8447 48.1228 28.0081 48.3933 28.0081C48.6561 28.0081 48.9112 27.8253 49.2396 27.4791C49.3514 27.3727 49.4523 27.2554 49.5411 27.129C49.521 27.2236 49.5107 27.3201 49.5101 27.4168C49.5101 27.6969 49.5836 27.977 49.8927 27.977C50.1246 27.977 50.4608 27.623 50.6424 27.4402L50.6347 27.5491C50.6347 27.8914 50.739 27.977 50.9013 27.977C51.0636 27.977 51.2955 27.7902 51.5737 27.4907C51.6858 27.3702 51.8326 27.2029 51.8867 27.1368L51.9447 27.0706C52.2345 26.7361 52.3852 26.5805 52.4586 26.5027L52.4702 26.5144C52.2654 26.8256 51.8983 27.2457 51.8983 27.6502C51.8983 27.8369 51.9988 27.9731 52.1881 27.9731C52.3582 27.9731 52.6055 27.8136 52.903 27.4985C53.027 27.375 53.1432 27.2438 53.2508 27.1057L53.2586 27.094C53.4054 26.9267 53.8884 26.3394 53.9619 26.2966L53.9735 26.3083C53.9387 26.3394 53.9387 26.5922 53.9387 26.8839C53.9387 27.2185 53.6141 27.8953 53.3281 27.8953C53.2547 27.8953 53.2238 27.8603 53.2238 27.8058C53.2238 27.6969 53.3088 27.7436 53.3088 27.6191C53.3088 27.5646 53.247 27.5219 53.1813 27.5219C53.0731 27.5219 53.0306 27.588 53.0306 27.6969C53.0306 27.7669 53.0808 27.868 53.1272 27.9069C53.2083 27.9692 53.2624 27.9731 53.4015 27.9731C53.7377 27.9731 54.0237 27.7786 54.3483 27.4013C54.4334 27.3099 54.5134 27.2138 54.5879 27.1134C54.6034 27.0901 54.6227 27.0706 54.6459 27.0706C54.6574 27.0706 54.6613 27.0823 54.6613 27.1095C54.6613 27.1446 54.6304 27.2068 54.6304 27.4246C54.6304 27.7591 54.7657 27.9731 55.0052 27.9731C55.3414 27.9731 55.5926 27.7513 55.7781 27.5335L55.8593 27.5374C55.9714 27.5371 56.0824 27.5139 56.1854 27.4691C56.2883 27.4243 56.3812 27.3589 56.4582 27.2768C56.5099 27.2261 56.5577 27.1714 56.6012 27.1134C56.6321 27.0745 56.6978 26.989 56.864 26.8023C57.1731 26.4639 57.3354 26.3277 57.5055 26.3277C57.5557 26.3277 57.5982 26.3588 57.5982 26.4172C57.5982 26.6117 56.7442 27.7358 56.6321 27.9614L57.0379 27.9264C57.2079 27.6308 58.3015 26.3199 58.5914 26.3199ZM61.1225 27.9925C62.1929 27.9925 63.0624 26.8567 63.53 26.0126C63.8472 25.9681 64.1529 25.8625 64.4304 25.7015L64.442 25.7131C64.0443 26.0177 63.7304 26.4193 63.53 26.8801L63.9589 26.6856C64.2488 25.9076 64.7163 25.6159 64.7163 25.5498C64.7163 25.5303 64.697 25.507 64.6738 25.507C64.6275 25.507 64.1908 25.8415 63.5725 25.9154C63.8932 25.293 64.1753 24.7096 64.3995 24.4918C64.6391 24.2506 64.7318 24.2312 64.7318 24.1884C64.7318 24.1845 64.7318 24.165 64.7163 24.165C64.6197 24.165 63.7734 24.7135 63.1513 25.9854C62.4982 26.106 61.9224 26.7167 61.9224 26.7906C61.9224 26.8023 61.9263 26.8139 61.9456 26.8139C61.9997 26.8139 62.3784 26.2305 63.0933 26.0788C62.7455 26.7128 62.1929 27.9264 61.1534 27.9264C60.767 27.9264 60.6511 27.8291 60.6511 27.6697C60.6511 27.6347 60.7515 27.5063 60.7515 27.4013C60.7515 27.2846 60.6549 27.1873 60.5235 27.1873C60.3535 27.1873 60.2801 27.3079 60.2801 27.4674C60.2839 27.7747 60.624 27.9925 61.1225 27.9925Z" fill="black"/>
<path d="M61.188 26.2344C62.6178 26.2344 63.1395 24.4918 63.1395 24.3478C63.1395 24.3362 63.1356 24.3245 63.1163 24.3245C63.066 24.3245 63.1085 24.4023 62.8728 24.8107C62.4787 25.4914 61.7174 26.1371 61.1455 26.1371C60.8556 26.1371 60.5929 25.9971 60.5929 25.682C60.5929 24.8107 61.6555 23.9005 63.3327 23.9005C63.6534 23.9005 64.5731 24.0289 65.2803 24.0289C65.7479 24.0289 66.0725 23.7449 66.0725 23.6633C66.0725 23.6321 66.0686 23.6321 66.0493 23.6321C65.9759 23.6321 65.8484 23.7411 64.7895 23.7411C63.1008 23.7411 62.297 23.8733 61.7019 24.1728C61.0914 24.4684 60.5233 25.013 60.5233 25.7054C60.5272 26.071 60.8711 26.2344 61.188 26.2344ZM74.5354 27.0434C74.5122 27.0434 74.4504 27.1523 74.2147 27.3974C73.8437 27.7708 73.5307 27.8836 73.3684 27.8836C73.1829 27.8797 73.1133 27.8019 73.1133 27.5569C73.1133 27.4907 73.1249 27.4246 73.1404 27.3585C73.4959 27.2846 74.3847 27.0045 74.3847 26.5494C74.3847 26.3744 74.2649 26.2499 74.0794 26.2499C73.7548 26.2499 73.3645 26.4911 73.0322 26.8334C72.9655 26.9039 72.901 26.9765 72.839 27.0512C72.8081 27.0745 72.7385 27.1873 72.5298 27.4013C72.1627 27.7747 71.8458 27.8875 71.6835 27.8875C71.498 27.8836 71.4323 27.8058 71.4323 27.5608C71.4323 27.4946 71.4439 27.4285 71.4555 27.3624C71.8149 27.2885 72.6998 27.0084 72.6998 26.5533C72.6998 26.3783 72.5801 26.2538 72.3984 26.2538C72.0738 26.2538 71.6835 26.495 71.3512 26.8373C71.2797 26.9097 71.2126 26.9863 71.1502 27.0668C71.1077 27.1134 70.9918 27.269 70.729 27.5296C70.4778 27.7902 70.3194 27.8875 70.2267 27.8875C70.1455 27.8875 70.1262 27.8447 70.1262 27.7747C70.1262 27.5257 71.1039 25.9854 72.0468 24.2623L71.6913 24.2739L70.3735 26.6583L70.3619 26.6467C70.3735 26.6039 70.3735 26.5494 70.3735 26.495C70.3735 26.3083 70.2383 26.2149 70.0875 26.2149C69.6895 26.2149 69.2838 26.5028 68.9592 26.8645C68.9025 26.9272 68.8484 26.992 68.7969 27.059C68.7737 27.0862 68.7196 27.1601 68.5032 27.3935C68.2558 27.6658 68.0008 27.8836 67.8617 27.8836C67.7999 27.8836 67.7651 27.8214 67.7651 27.763C67.7651 27.6658 67.8965 27.4402 68.167 27.0706C68.2752 26.9228 68.3988 26.7478 68.3988 26.5378C68.3988 26.4055 68.3331 26.246 68.1824 26.246C67.8733 26.246 67.1777 27.1095 66.942 27.3351L66.9304 27.3235C67.0656 27.1446 67.313 26.7906 67.313 26.5494C67.313 26.3627 67.2473 26.246 67.0888 26.246C66.8531 26.246 66.6096 26.4716 66.3198 26.8139C66.2209 26.925 66.1255 27.0391 66.0339 27.1562C65.9659 27.2431 65.8806 27.3147 65.7834 27.3663C65.6862 27.4179 65.5793 27.4484 65.4697 27.4557C65.4349 27.4557 65.4156 27.4518 65.404 27.4441C65.6061 27.2371 65.7316 26.9666 65.7595 26.6778C65.7595 26.4366 65.6281 26.2538 65.3962 26.2538C65.0169 26.2869 64.6631 26.4601 64.4031 26.74C64.2717 26.8574 64.1537 26.9891 64.0514 27.1329C64.0514 27.1484 64.0708 27.164 64.0901 27.164C64.1055 27.164 64.1519 27.0668 64.1983 27.0668C64.2099 27.0668 64.2176 27.0784 64.2176 27.1057C64.2176 27.1407 64.1867 27.2029 64.1867 27.4207C64.1867 27.7552 64.3181 27.9692 64.5615 27.9692C64.8977 27.9692 65.1451 27.7475 65.3344 27.5296L65.4117 27.5335C65.5239 27.5332 65.6348 27.51 65.7378 27.4652C65.8408 27.4204 65.9336 27.355 66.0107 27.2729C66.0624 27.2222 66.1102 27.1676 66.1536 27.1095C66.1846 27.0706 66.2503 26.989 66.4164 26.8023C66.7256 26.4639 66.8879 26.3277 67.0579 26.3277C67.1043 26.3277 67.1468 26.3588 67.1468 26.4172C67.1468 26.6117 66.2928 27.7358 66.1807 27.9614L66.5865 27.9264C66.7681 27.6347 67.8617 26.3238 68.1515 26.3238C68.2056 26.3238 68.2365 26.3549 68.2365 26.3977C68.2365 26.5689 67.5835 27.0784 67.5835 27.5646C67.5835 27.7902 67.6646 27.9614 67.8462 27.9614C67.9853 27.9614 68.1979 27.798 68.4645 27.5219C68.5264 27.4596 68.7273 27.2379 68.8084 27.1329C68.8162 27.1251 68.8278 27.1095 68.8394 27.1095C68.8283 27.2051 68.8232 27.3012 68.8239 27.3974C68.8239 27.6463 68.9167 27.9575 69.1678 27.9575C69.4809 27.9575 69.8441 27.5724 69.9793 27.3663L69.9909 27.3779C69.9716 27.448 69.9484 27.5296 69.9484 27.6269C69.9484 27.8214 70.0296 27.9536 70.1726 27.9536C70.3967 27.9536 70.6633 27.7319 71.0846 27.234C71.1271 27.1835 71.1618 27.1446 71.1812 27.1134L71.185 27.1251C71.185 27.1407 71.1696 27.2107 71.1696 27.3001C71.1696 27.6152 71.3164 27.9497 71.6488 27.9497C71.9308 27.9458 72.1704 27.8253 72.4718 27.5413C72.6148 27.4085 72.7466 27.2641 72.866 27.1095L72.8699 27.1212C72.8699 27.1368 72.8544 27.2068 72.8544 27.2963C72.8544 27.6113 72.9974 27.9458 73.3336 27.9458C73.6196 27.9419 73.8514 27.8214 74.1528 27.5374C74.3345 27.374 74.5702 27.094 74.5702 27.0668C74.5702 27.0395 74.5509 27.0434 74.5354 27.0434ZM80.0807 27.0434C80.046 27.0434 80.0692 27.0629 79.76 27.3896C79.5127 27.6619 79.2576 27.8797 79.1185 27.8797C79.0567 27.8797 79.0258 27.8175 79.0258 27.7591C79.0258 27.6619 79.1572 27.4363 79.4277 27.0668C79.5282 26.9189 79.6518 26.7439 79.6518 26.5378C79.6518 26.4055 79.5861 26.246 79.4354 26.246C79.1263 26.246 78.4345 27.1095 78.195 27.3351L78.1834 27.3235C78.3147 27.1446 78.5659 26.7906 78.5659 26.5494C78.5659 26.3627 78.4964 26.246 78.3418 26.246C78.1061 26.246 77.8626 26.4716 77.5728 26.8139L77.3602 27.0668C77.3216 27.1134 77.2443 27.2185 77.0704 27.3974C76.7033 27.7708 76.3864 27.8836 76.2241 27.8836C76.0348 27.8797 75.9691 27.8019 75.9691 27.5569C75.9691 27.4907 75.9807 27.4246 75.9923 27.3585C76.3478 27.2846 77.2366 27.0045 77.2366 26.5494C77.2366 26.3744 77.1168 26.2499 76.9352 26.2499C76.6106 26.2499 76.2203 26.4911 75.8879 26.8334C75.8043 26.9149 75.7292 27.0048 75.6638 27.1018C75.6638 27.1134 75.687 27.1368 75.6947 27.1368C75.7024 27.1368 75.7063 27.1251 75.7102 27.1173C75.7102 27.1173 75.7179 27.1173 75.7179 27.129C75.7179 27.1446 75.6986 27.2146 75.6986 27.304C75.6986 27.6191 75.8454 27.9536 76.1778 27.9536C76.4637 27.9497 76.6994 27.8291 77.0009 27.5452C77.1516 27.4091 77.3371 27.1951 77.3989 27.1134C77.4259 27.0823 77.4839 27.0045 77.6733 26.7906C77.9824 26.4522 78.1447 26.316 78.3147 26.316C78.365 26.316 78.4036 26.3472 78.4036 26.4055C78.4036 26.6 77.5496 27.7241 77.4375 27.9497L77.8394 27.9147C78.021 27.623 79.1147 26.3122 79.4045 26.3122C79.4625 26.3122 79.4895 26.3433 79.4895 26.3861C79.4895 26.5572 78.8364 27.0668 78.8364 27.553C78.8364 27.7786 78.9214 27.9497 79.1031 27.9497C79.2422 27.9497 79.4547 27.7864 79.7214 27.5102C79.8025 27.4285 80.1039 27.0979 80.1039 27.0668C80.1039 27.0629 80.1001 27.0434 80.0807 27.0434ZM59.4335 30.0191C59.3679 30.0191 59.1437 30.3613 58.3979 31.0031C57.683 31.6177 57.54 31.6644 57.54 31.7227C57.54 31.7422 57.5439 31.7539 57.5632 31.7539C57.6173 31.7539 57.7139 31.68 58.0308 31.431C58.4773 31.0638 58.8982 30.6661 59.2906 30.2408L59.3022 30.2524C58.7998 31.1121 58.1699 32.0184 57.6212 32.9169C57.7719 32.9013 57.9226 32.8819 58.081 32.8819C58.7032 31.7733 59.4645 30.1941 59.4645 30.0774C59.4645 30.0424 59.4529 30.0191 59.4335 30.0191ZM62.154 30.0191C62.0536 30.0191 62.0729 30.1513 61.9531 30.268C61.9124 30.3095 61.8635 30.342 61.8096 30.3634C61.7557 30.3848 61.698 30.3947 61.6401 30.3925C61.5087 30.3925 61.4082 30.3186 61.3193 30.2524C61.2227 30.1785 61.1339 30.1046 61.0102 30.1046C60.875 30.1046 60.5928 30.3536 60.4962 30.443L60.4847 30.4314C60.6006 30.2797 60.7011 30.0968 60.817 29.9335L60.6856 29.9646C60.6431 30.0502 60.4731 30.3536 60.419 30.4275C60.3339 30.5364 60.0982 30.6686 60.0982 30.8203C60.0982 30.867 60.133 30.8942 60.1755 30.8942C60.3262 30.8942 60.4962 30.3341 60.7938 30.3341C60.9252 30.3341 61.1609 30.5792 61.358 30.5792C61.5512 30.5792 61.7212 30.4819 61.8758 30.4002L61.8874 30.4119C61.1649 31.213 60.5011 32.0658 59.9011 32.9636C60.0171 32.9324 60.1369 32.9324 60.3842 32.9247C61.0682 31.6916 61.3232 31.326 61.8372 30.5831C62.0497 30.2836 62.1927 30.1785 62.1927 30.0774C62.1966 30.0385 62.1734 30.0191 62.154 30.0191ZM64.2524 30.5286C64.2524 30.6492 64.3258 30.7114 64.4417 30.7114C64.5384 30.7114 64.6543 30.6025 64.6543 30.4314C64.6543 30.1746 64.4533 30.0191 64.1403 30.0191C63.352 30.0191 62.1154 31.2249 62.1154 32.2479C62.1154 32.6913 62.2854 32.9597 62.6371 32.9597C63.2283 32.9597 63.7964 32.2479 63.7964 31.6994C63.7925 31.3727 63.5877 31.1237 63.3095 31.1237C62.9849 31.1237 62.7414 31.4349 62.6023 31.6488L62.5907 31.6372C62.7105 31.2404 63.4795 30.093 64.1249 30.093C64.3181 30.093 64.4224 30.1746 64.4224 30.2641C64.4224 30.3652 64.2524 30.3341 64.2524 30.5286ZM66.8647 30.0191C66.8531 30.0191 66.8029 30.0502 66.7178 30.0852C66.472 30.1621 66.2098 30.1688 65.9604 30.1046C65.8754 30.0813 65.8213 30.0541 65.7749 30.0541C65.7324 30.0541 65.7247 30.0891 65.6667 30.1902C64.8514 31.571 64.8089 31.5905 64.8089 31.6216C64.8089 31.6372 64.8282 31.6566 64.8591 31.6566C64.9364 31.6566 65.1914 31.2443 65.5779 31.2443C65.7518 31.2443 65.8947 31.3532 65.8947 31.5244C65.8947 32.0612 65.4156 32.8858 64.8011 32.8858C64.5461 32.8858 64.4572 32.7535 64.4572 32.6368C64.4572 32.5629 64.4572 32.5162 64.5306 32.5046C64.6504 32.4851 64.7509 32.4423 64.7509 32.3023C64.7509 32.1973 64.6968 32.1389 64.5615 32.1389C64.4108 32.1389 64.3026 32.2751 64.3026 32.4851C64.3026 32.7341 64.4881 32.9597 64.9016 32.9597C65.4697 32.9597 66.1884 32.3762 66.1884 31.7772C66.1884 31.4349 65.9836 31.1704 65.6049 31.1704C65.3802 31.1826 65.1693 31.2832 65.0175 31.4505L65.0098 31.4427L65.6745 30.3847C65.7812 30.4332 65.8974 30.4571 66.0145 30.4547C66.5826 30.4547 66.8995 30.1085 66.8995 30.0463C66.8917 30.0229 66.8763 30.0191 66.8647 30.0191ZM20.5582 55.8273C19.7081 55.45 19.4723 54.252 19.4723 53.5129V34.4922C19.4723 33.1075 20.3341 32.5746 20.5389 32.4851C20.7437 32.3996 20.8055 32.2167 20.5544 32.2167H14.2671C14.0932 32.2167 13.9772 32.4034 14.2825 32.4851C14.9549 32.6679 15.5771 33.6598 15.5771 34.4922V42.5245H5.47182V34.4922C5.47182 33.1075 6.33357 32.5746 6.53838 32.4851C6.74319 32.3996 6.80502 32.2167 6.55384 32.2167H0.266544C0.0926483 32.2167 -0.0232821 32.4034 0.282001 32.4851C0.950533 32.6641 1.57656 33.6559 1.57656 34.4922V53.3379C1.57656 55.1466 0.498405 55.7651 0.204714 55.8273C-0.088976 55.8934 -0.0426039 56.0957 0.204714 56.0957H6.5577C6.75865 56.0957 6.77797 55.9245 6.56156 55.8273C5.71141 55.45 5.47568 54.252 5.47568 53.5129V44.2048H15.5809V53.3379C15.5809 55.1466 14.5028 55.7651 14.2091 55.8273C13.9154 55.8934 13.9618 56.0957 14.2091 56.0957H20.5621C20.7553 56.0957 20.7708 55.9245 20.5582 55.8273ZM35.1384 45.4923C35.3239 45.4923 35.4166 45.399 35.4166 45.2356C35.4166 40.2957 32.0933 38.7048 29.4617 38.7048C23.4372 38.7048 22.2276 45.4962 22.2276 47.8806C22.2276 54.1547 25.6012 56.3524 28.4144 56.3524C33.4149 56.3524 35.0186 51.1091 35.1345 50.7123C35.2505 50.3156 35.32 50.1289 35.0882 50.0083C34.8524 49.8916 34.7752 50.0472 34.6206 50.3584C33.5038 52.6533 32.1319 53.6102 30.3891 53.6102C27.715 53.6102 25.4582 51.5253 25.4582 47.1727C25.4582 46.562 25.4775 46.0019 25.5162 45.4884H35.1384V45.4923Z" fill="black"/>
<path d="M29.0677 39.7822C32.02 39.7822 32.2055 44.2048 32.2055 44.2048H25.6709C26.2428 40.5135 27.9122 39.7822 29.0677 39.7822Z" fill="white"/>
<path d="M84.1193 45.4923C84.3048 45.4923 84.3975 45.399 84.3975 45.2356C84.3975 40.2957 81.0703 38.7048 78.4426 38.7048C72.418 38.7048 71.2085 45.4962 71.2085 47.8806C71.2085 54.1547 74.5821 56.3524 77.3953 56.3524C82.3958 56.3524 83.9995 51.1091 84.1154 50.7123C84.2313 50.3156 84.3009 50.1289 84.069 50.0083C83.8372 49.8916 83.756 50.0472 83.6053 50.3584C82.4885 52.6533 81.1167 53.6102 79.3739 53.6102C76.6997 53.6102 74.443 51.5253 74.443 47.1727C74.443 46.562 74.4623 46.0019 74.5009 45.4884H84.1193V45.4923Z" fill="black"/>
<path d="M78.0481 39.7822C81.0043 39.7822 81.1859 44.2048 81.1859 44.2048H74.6475C75.2232 40.5135 76.8927 39.7822 78.0481 39.7822Z" fill="white"/>
<path d="M36.6958 56.0957C36.4678 56.0957 36.3905 55.9129 36.6765 55.8273C36.9624 55.7417 38.0831 55.3255 38.0831 53.7191V43.1468C38.0831 42.3339 37.5305 41.4431 36.746 41.4431C36.5489 41.4431 36.3905 41.1475 36.7847 41.0075C37.1788 40.8675 39.3622 40.0973 41.1514 38.8487C41.3021 38.7476 41.503 38.6309 41.503 39.0276V40.673C41.503 40.9491 41.4837 41.3459 41.8779 40.9103C42.272 40.4746 43.8835 38.6931 46.6387 38.6931C49.394 38.6931 51.303 40.5757 51.303 42.9718V53.9991C51.303 55.3255 51.844 55.6756 52.3039 55.8001C52.6169 55.8856 52.47 56.0957 52.2227 56.0957H46.8242C46.5962 56.0957 46.5962 55.9129 46.8242 55.8273C47.0522 55.7417 47.856 55.3061 47.856 53.6024V43.8392C47.856 42.6684 47.3652 40.673 44.9848 40.673C42.6044 40.673 41.4644 42.4739 41.4644 45.4612V54.2325C41.4644 54.886 41.7774 55.5978 42.4266 55.7962C42.5966 55.8468 42.6237 56.0918 42.357 56.0918L36.6958 56.0957ZM54.1317 56.0957C53.9037 56.0957 53.8264 55.9129 54.1124 55.8273C54.3983 55.7417 55.519 55.3255 55.519 53.7191V43.1468C55.519 42.3339 54.9664 41.4431 54.1819 41.4431C53.9849 41.4431 53.8264 41.1475 54.2206 41.0075C54.6147 40.8675 56.7981 40.0973 58.5873 38.8487C58.738 38.7476 58.9428 38.6309 58.9428 39.0276V40.673C58.9428 40.9491 58.9235 41.3459 59.3177 40.9103C59.7118 40.4746 61.3271 38.6931 64.0785 38.6931C66.8299 38.6931 68.7428 40.5757 68.7428 42.9718V53.9991C68.7428 55.3255 69.2838 55.6756 69.7475 55.8001C70.0605 55.8856 69.9137 56.0957 69.6664 56.0957H64.2679C64.0399 56.0957 64.0399 55.9129 64.2679 55.8273C64.4959 55.7417 65.3035 55.3061 65.3035 53.6024V43.8392C65.3035 42.6684 64.8128 40.673 62.4285 40.673C60.048 40.673 58.908 42.4739 58.908 45.4612V54.2325C58.908 54.886 59.2249 55.5978 59.8741 55.7962C60.0442 55.8468 60.0712 56.0918 59.8046 56.0918L54.1317 56.0957ZM86.6656 56.0957L86.3835 51.0857C86.3835 51.0857 86.3835 50.8368 86.5922 50.8368C86.8009 50.8368 86.8395 50.899 86.9439 51.1285C87.0482 51.358 88.2307 55.31 91.098 55.31C93.0766 55.31 94.089 53.8591 94.089 52.7155C94.089 51.572 93.3432 50.4012 90.0933 48.5263C86.8434 46.6515 86.2405 45.6479 86.2405 43.6486C86.2405 41.6493 87.7515 38.9382 91.3956 38.9382C93.0727 38.9382 93.8185 39.436 94.2127 39.5411C94.6069 39.6461 95.2252 39.8134 95.5575 39.1249C95.658 38.9148 95.7043 38.8098 95.828 38.8098C95.9516 38.8098 96.0328 38.8293 96.0328 39.1015C96.0328 39.3738 96.2415 43.1235 96.2415 43.1235C96.2415 43.1235 96.2647 43.4969 95.9748 43.4969C95.685 43.4969 95.7043 43.2674 95.5188 42.9135C95.0435 41.9955 93.8224 39.9767 91.3995 39.9767C90.7773 39.9767 89.1233 40.144 89.1233 42.1627C89.1233 44.1815 91.1096 44.7688 92.4158 45.6246C93.7219 46.4803 97.2192 48.044 97.2192 51.4397C97.2192 54.8354 94.2397 56.4419 91.6893 56.4419C90.6961 56.4419 89.6605 56.2552 88.8219 55.8234C88.42 55.6173 87.736 55.3994 87.1641 56.0918C86.9748 56.3291 86.6656 56.5275 86.6656 56.0957ZM99.0663 56.0957L98.7842 51.0857C98.7842 51.0857 98.7842 50.8368 98.9929 50.8368C99.2016 50.8368 99.2402 50.899 99.3445 51.1285C99.4489 51.358 100.631 55.31 103.499 55.31C105.477 55.31 106.49 53.8591 106.49 52.7155C106.49 51.572 105.744 50.4012 102.494 48.5263C99.2441 46.6515 98.6412 45.6479 98.6412 43.6486C98.6412 41.6493 100.152 38.9382 103.796 38.9382C105.473 38.9382 106.219 39.436 106.613 39.5411C107.008 39.6461 107.626 39.8134 107.958 39.1249C108.059 38.9148 108.105 38.8098 108.229 38.8098C108.352 38.8098 108.433 38.8293 108.433 39.1015C108.433 39.3738 108.642 43.1235 108.642 43.1235C108.642 43.1235 108.665 43.4969 108.376 43.4969C108.086 43.4969 108.105 43.2674 107.92 42.9135C107.444 41.9955 106.223 39.9767 103.8 39.9767C103.178 39.9767 101.524 40.144 101.524 42.1627C101.524 44.1815 103.51 44.7688 104.816 45.6246C106.123 46.4803 109.62 48.044 109.62 51.4397C109.62 54.8354 106.64 56.4419 104.09 56.4419C103.097 56.4419 102.061 56.2552 101.223 55.8234C100.821 55.6173 100.137 55.3994 99.5648 56.0918C99.3755 56.3291 99.0663 56.5275 99.0663 56.0957Z" fill="black"/>
<path d="M124.865 39.0509H120.908C120.711 39.0509 120.734 39.2727 120.861 39.3193C121.21 39.5213 121.477 39.8412 121.613 40.2222C121.75 40.6033 121.748 41.0207 121.607 41.4003C121.437 41.9643 119.667 46.9821 118.11 51.3697C117.418 49.3976 114.779 41.8477 114.489 40.9375C114.161 39.8872 114.833 39.4671 115.2 39.3154C115.567 39.1676 115.39 39.0471 115.189 39.0471H109.179C108.975 39.0471 108.94 39.2804 109.102 39.3154C109.829 39.4905 110.339 39.9767 110.578 40.6574C110.795 41.2603 115.382 53.5207 116.39 56.2163L115.757 57.99C115.247 59.4097 114.586 59.822 113.79 59.822C112.994 59.822 112.835 59.0674 111.718 59.0674C110.833 59.0674 110.204 59.5692 110.204 60.3043C110.204 61.0395 110.876 61.8602 112.445 61.8602C114.991 61.8602 116.255 59.7753 116.87 58.0366C117.484 56.2979 122.442 42.5789 122.852 41.5248C123.474 39.93 124.556 39.3855 124.815 39.3154C125.074 39.2571 125.027 39.0509 124.865 39.0509ZM43.3658 66.913C43.3658 66.913 43.5938 67.298 43.4045 67.7531C43.2151 68.2121 42.5891 68.9745 40.8617 68.9745C39.1344 68.9745 37.4302 68.1149 37.4302 66.2439C37.4302 64.373 38.717 63.1516 40.6917 63.1516C42.1911 63.1516 42.5311 63.8012 42.9485 63.42H43.1958L43.4392 64.583H43.2306C43.2306 64.583 42.4345 63.455 40.7844 63.455C39.1344 63.455 38.319 64.7347 38.319 66.0883C38.319 67.442 39.2696 68.6283 40.8424 68.6283C42.419 68.6361 43.0992 67.9865 43.3658 66.913ZM87.914 66.913C87.914 66.913 88.142 67.298 87.9526 67.7531C87.7633 68.2082 87.1373 68.9745 85.4099 68.9745C83.6825 68.9745 81.9784 68.1149 81.9784 66.2439C81.9784 64.373 83.2652 63.1516 85.2399 63.1516C86.7392 63.1516 87.0832 63.8012 87.4966 63.42H87.744L87.9874 64.583H87.7787C87.7787 64.583 86.9827 63.455 85.3326 63.455C83.6825 63.455 82.8672 64.7347 82.8672 66.0883C82.8672 67.442 83.8139 68.6283 85.3906 68.6283C86.9672 68.6283 87.6474 67.9865 87.914 66.913Z" fill="black"/>
<path d="M49.2935 68.9589C51.2079 68.9589 52.7598 67.6424 52.7598 66.0183C52.7598 64.3943 51.2079 63.0777 49.2935 63.0777C47.3791 63.0777 45.8271 64.3943 45.8271 66.0183C45.8271 67.6424 47.3791 68.9589 49.2935 68.9589Z" fill="black"/>
<path d="M49.2936 68.6945C50.7022 68.6945 51.8441 67.4963 51.8441 66.0183C51.8441 64.5404 50.7022 63.3422 49.2936 63.3422C47.885 63.3422 46.7432 64.5404 46.7432 66.0183C46.7432 67.4963 47.885 68.6945 49.2936 68.6945Z" fill="white"/>
<path d="M60.388 66.4384V66.2751H61.9685V66.4657C61.9685 66.4657 61.5782 66.4734 61.5782 66.9869V68.2044C61.5782 68.2044 60.5078 68.994 59.0896 68.994C57.6714 68.994 55.5073 68.2821 55.5073 66.135C55.5073 65.1004 56.2647 63.1905 58.85 63.1905C59.9629 63.1905 60.8247 63.7895 61.0681 63.4433H61.3193L61.6014 64.6686H61.3463C61.3463 64.6686 60.5851 63.4784 58.85 63.4784C58.5153 63.4802 58.1847 63.552 57.8791 63.6892C57.5735 63.8264 57.2996 64.0261 57.0747 64.2755C56.8498 64.5249 56.6788 64.8187 56.5727 65.1381C56.4665 65.4576 56.4274 65.7957 56.458 66.1311C56.458 67.4536 57.3931 68.6672 59.0471 68.6672C60.3184 68.6672 60.8169 68.0877 60.8169 68.0877V66.983C60.8169 66.7729 60.7242 66.5435 60.388 66.4384ZM70.1687 63.385V63.6067C70.528 63.6067 70.5705 63.9568 70.5705 63.9568V67.3175L66.0145 63.35H64.774V63.5095L65.3382 64.0229V68.0371C65.3382 68.5817 64.9788 68.6283 64.9788 68.6283V68.8734H66.1459V68.6361C66.0225 68.598 65.9141 68.522 65.8358 68.4188C65.7575 68.3156 65.7132 68.1903 65.7092 68.0604V64.3613L70.6942 68.8734H71.0149V63.9801C71.0149 63.6573 71.3743 63.5756 71.3743 63.5756V63.385H70.1687ZM80.2082 68.1266L76.6955 63.1827L76.1275 63.7545L76.3246 64.0424C75.9381 64.6414 73.72 68.0877 73.5461 68.3172C73.4377 68.4606 73.3057 68.5842 73.1558 68.6828V68.8812L74.2958 68.8773V68.6517C73.7316 68.6517 74.0871 68.1771 74.0871 68.1771L75.0686 66.6407H78.1099L79.161 68.1694C79.4508 68.5778 79.0373 68.6439 79.0373 68.6439V68.8773H80.9231V68.64C80.5947 68.6361 80.2082 68.1266 80.2082 68.1266Z" fill="black"/>
<path d="M75.3083 66.2751L76.541 64.3496L77.8626 66.2751H75.3083ZM49.8886 27.8836C49.792 27.8836 49.7495 27.8019 49.7495 27.6891C49.7495 27.2457 50.3176 26.3199 50.8083 26.3199C50.9359 26.3199 50.9938 26.4172 50.9938 26.5455C50.9938 26.9928 50.2403 27.8836 49.8886 27.8836ZM55.0243 27.8836C54.9393 27.8836 54.8659 27.8291 54.8659 27.658C54.8659 27.1406 55.4301 26.3199 55.8513 26.3199C56.002 26.3199 56.0639 26.4522 56.0639 26.6C56.0639 27.1601 55.4997 27.8836 55.0243 27.8836ZM74.0794 26.3199C74.1606 26.3199 74.2031 26.3549 74.2031 26.4405C74.2031 26.88 73.5616 27.234 73.1597 27.2807C73.2486 26.9345 73.7626 26.3199 74.0794 26.3199ZM72.3984 26.3199C72.4796 26.3199 72.5182 26.3549 72.5182 26.4405C72.5182 26.88 71.8768 27.234 71.4787 27.2807C71.5676 26.9345 72.0777 26.3199 72.3984 26.3199ZM64.5886 27.8836C64.5075 27.8836 64.4302 27.8291 64.4302 27.658C64.4302 27.1406 64.9944 26.3199 65.4156 26.3199C65.5701 26.3199 65.6281 26.4522 65.6281 26.6C65.6281 27.1601 65.0678 27.8836 64.5886 27.8836ZM69.2258 27.8836C69.1099 27.8836 69.0635 27.833 69.0635 27.7202C69.0635 27.1095 69.7204 26.2849 70.1262 26.2849C70.2576 26.2849 70.3001 26.3822 70.3001 26.5222C70.3001 27.0706 69.5272 27.8836 69.2258 27.8836ZM76.9352 26.3199C77.0163 26.3199 77.055 26.3549 77.055 26.4405C77.055 26.88 76.4135 27.234 76.0155 27.2807C76.1005 26.9345 76.6144 26.3199 76.9352 26.3199ZM63.2979 31.2015C63.4679 31.2015 63.5298 31.3104 63.5298 31.536C63.5298 31.9872 63.0158 32.8858 62.556 32.8858C62.4246 32.8858 62.3202 32.7768 62.3202 32.6057C62.3164 32.1428 62.8149 31.2015 63.2979 31.2015Z" fill="white"/>
</g>
<defs>
<clipPath id="clip0_605_23">
<rect width="125" height="69" fill="white"/>
</clipPath>
</defs>
</svg>
